<?xml version="1.0" standalone="yes"?>

<svg version="1.1" viewBox="0.0 0.0 960.0 360.0" fill="none" stroke="none" stroke-linecap="square" stroke-miterlimit="10" xmlns="http://www.w3.org/2000/svg" xmlns:xlink="http://www.w3.org/1999/xlink"><clipPath id="p.0"><path d="m0 0l960.0 0l0 360.0l-960.0 0l0 -360.0z" clip-rule="nonzero"></path></clipPath><g clip-path="url(#p.0)"><path fill="#000000" fill-opacity="0.0" d="m0 0l960.0 0l0 360.0l-960.0 0z" fill-rule="nonzero"></path><path fill="#c32626" d="m45.708145 62.958817l0 0c0 -12.774025 10.355392 -23.129421 23.129417 -23.129421l233.04825 0c6.134308 0 12.0173645 2.4368439 16.35498 6.774452c4.337616 4.3376083 6.7744446 10.220665 6.7744446 16.354969l0 233.04823c0 12.774048 -10.355377 23.129425 -23.129425 23.129425l-233.04825 0c-12.774025 0 -23.129417 -10.355377 -23.129417 -23.129425z" fill-rule="nonzero"></path><path fill="#ffffff" d="m86.846695 226.84534l35.123077 -48.44095l133.43889 0l35.123077 48.44095z" fill-rule="nonzero"></path><path fill="#ffffff" d="m86.862305 285.86877l68.5137 0.0847168l135.41354 -135.41354l-0.0847168 -68.5137z" fill-rule="nonzero"></path><path fill="#ffffff" d="m86.846695 84.141335l85.921265 84.283455l85.92125 -84.283455z" fill-rule="nonzero"></path><path fill="#ffffff" d="m223.3837 285.27795l0 -48.44095l-48.62993 48.44095z" fill-rule="nonzero"></path><path fill="#ffffff" d="m223.38252 236.8368l67.18111 0l0 48.440933l-67.18111 0z" fill-rule="nonzero"></path><path fill="#c32626" d="m247.0163 255.22972l11.653534 0l0 11.653549l-11.653534 0z" fill-rule="nonzero"></path><path fill="#c32626" d="m258.68414 266.89734l11.653534 0l0 11.653534l-11.653534 0z" fill-rule="nonzero"></path><path fill="#c32626" d="m270.352 243.5621l11.653564 0l0 11.653534l-11.653564 0z" fill-rule="nonzero"></path><path fill="#434343" d="m395.7731 201.12633c-10.20047 0 -17.967407 2.105667 -23.300812 6.3170166c-5.318817 4.2113495 -7.9782104 9.938202 -7.9782104 17.180557c0 2.7832794 0.4225769 5.1804047 1.2677612 7.1913605c0.8451843 2.0109558 2.003662 3.8033142 3.4754333 5.3771057c1.4863586 1.5592346 3.2131653 2.8998718 5.1803894 4.0219116c1.9672546 1.1220703 4.0729065 2.178543 6.3170166 3.1694489c1.9672546 0.88890076 3.5774536 1.6685028 4.830658 2.3388214c1.2532043 0.6703186 2.2368164 1.3187714 2.9508667 1.9453888c0.7286072 0.6266022 1.2459106 1.3041992 1.5519104 2.0328064c0.32058716 0.71403503 0.480896 1.5592194 0.480896 2.535553c0 1.5300751 -0.852478 2.943573 -2.5574036 4.240509c-1.704956 1.2969055 -4.8379517 1.9453735 -9.399017 1.9453735c-4.575653 0 -8.473694 -0.6703186 -11.694122 -2.0109558c-3.2204285 -1.3552246 -5.5884094 -2.4772644 -7.1039124 -3.3661652l-6.8634644 15.300735c0.80148315 0.4517517 1.9380798 1.0346375 3.4098816 1.7486572c1.4863586 0.7140503 3.3005676 1.4135132 5.442688 2.0983887c2.1566772 0.6703186 4.641205 1.22406 7.4536133 1.6612244c2.8269958 0.4517517 5.9891663 0.6776123 9.48645 0.6776123c5.6394043 0 10.470062 -0.6703186 14.491974 -2.0109558c4.0364685 -1.3406372 7.3516235 -3.0820007 9.945465 -5.224121c2.5938416 -2.1566772 4.495514 -4.6193542 5.7049866 -7.3880615c1.2094727 -2.7832947 1.8142395 -5.6102905 1.8142395 -8.480988c0 -2.7687073 -0.31332397 -5.1804047 -0.9399109 -7.235077c-0.62661743 -2.0692291 -1.6320801 -3.9053192 -3.0164185 -5.5082703c-1.3843689 -1.6175079 -3.2423096 -3.1402893 -5.5738525 -4.5683594c-2.331543 -1.4426422 -5.238678 -3.0091553 -8.721405 -4.6995087c-2.5064087 -1.2532043 -4.459076 -2.3242645 -5.857971 -3.2131653c-1.3843689 -0.9034729 -2.076538 -2.2513885 -2.076538 -4.043762c0 -1.3406372 0.31329346 -2.4116974 0.9399109 -3.2131653c0.6265869 -0.81604004 1.4499207 -1.4426422 2.4699707 -1.8798065c1.0346069 -0.45173645 2.1566772 -0.7431793 3.36615 -0.8743286c1.2094727 -0.14572144 2.4408264 -0.21858215 3.6940308 -0.21858215c2.870697 0 5.777832 0.45173645 8.721405 1.3552094c2.95813 0.88890076 5.3771057 1.8288116 7.2569275 2.8197174l6.8634644 -14.907303c-2.331543 -1.2532043 -5.3771057 -2.4189758 -9.136719 -3.4973145c-3.759613 -1.0783386 -8.05838 -1.6175079 -12.896332 -1.6175079z" fill-rule="evenodd"></path><path fill="#434343" d="m465.469 169.43192l-20.80899 3.2350159l-24.17514 100.984955l20.022095 0l13.027466 -54.51439c1.2532043 -0.27687073 2.5282593 -0.5027466 3.8251953 -0.6776123c1.2969055 -0.17486572 2.6593933 -0.26229858 4.0874634 -0.26229858c3.3953247 0 5.697693 0.8306122 6.907196 2.4918365c1.2094727 1.6466522 1.814209 3.6357422 1.814209 5.9673004c0 1.5154877 -0.16027832 3.1257172 -0.48086548 4.830658c-0.30603027 1.7049408 -0.6338806 3.315155 -0.98361206 4.830658l-8.87442 37.333847l20.022064 0l9.136719 -38.142593c0.888916 -3.6721802 1.3333435 -7.388077 1.3333435 -11.14769c0 -3.2204437 -0.4517212 -6.2150116 -1.3551941 -8.983719c-0.8888855 -2.7832794 -2.2295227 -5.1804047 -4.0219116 -7.1913605c-1.7923584 -2.0109558 -4.0801697 -3.5774536 -6.8634644 -4.6995087c-2.7686768 -1.122055 -6.0765686 -1.6830902 -9.9236145 -1.6830902c-1.7923584 0 -3.606598 0.138443 -5.4426575 0.41531372c-1.8360901 0.26229858 -3.643036 0.5683136 -5.4208374 0.91804504l8.174957 -33.705368z" fill-rule="evenodd"></path><path fill="#434343" d="m596.67706 216.97353c4.8378906 0 7.256897 2.1493988 7.256897 6.448181c0 1.2531891 -0.31329346 2.5063934 -0.9398804 3.759613c-0.62664795 1.2531891 -1.8798218 2.4189606 -3.7596436 3.4973145c-1.8797607 1.0783234 -4.524597 1.9963684 -7.9345093 2.7541351c-3.3952637 0.75775146 -7.8689575 1.2240448 -13.420898 1.3989105c1.0783081 -5.3625336 3.336975 -9.675888 6.776001 -12.940048c3.4536133 -3.2787323 7.4609375 -4.918106 12.022034 -4.918106zm-55.046387 -15.4319c-6.003723 0 -11.402649 0.56103516 -16.1969 1.6830902c-4.779663 1.1074829 -9.100281 2.2878265 -12.961914 3.541031l-16.109436 66.88614l20.022095 0l13.027466 -54.25209c0.97631836 -0.27687073 2.222229 -0.52459717 3.737732 -0.7431793c1.5300903 -0.21858215 2.921692 -0.32788086 4.1749268 -0.32788086c3.3952637 0 5.967285 0.20401001 7.7159424 0.61203c1.7485962 0.39344788 3.519165 0.81604004 5.3115234 1.2677765l5.9016724 -16.131363c-2.0546265 -0.88890076 -4.451782 -1.5300751 -7.191345 -1.923523c-2.7249756 -0.40802002 -5.2022095 -0.61203 -7.4317627 -0.61203zm58.281372 -0.41529846c-6.3534546 0 -12.153137 1.2750549 -17.399109 3.82518c-5.2313843 2.5501251 -9.6831665 5.909012 -13.355347 10.076645c-3.6721802 4.167633 -6.520996 8.940002 -8.546509 14.317123c-2.0109863 5.362549 -3.0164185 10.907242 -3.0164185 16.634094c0 4.036484 0.53912354 7.847107 1.6174927 11.431854c1.0783081 3.57016 2.7978516 6.703186 5.1585083 9.399017c2.3752441 2.6812744 5.4645386 4.8088074 9.267883 6.382599c3.817871 1.5592346 8.502808 2.3388367 14.05481 2.3388367c4.561035 0 8.786987 -0.40802002 12.677734 -1.22406c3.9053345 -0.80145264 7.111206 -1.6903687 9.617554 -2.666687l-1.4863281 -15.716064c-2.593872 0.99090576 -5.369812 1.7341003 -8.327942 2.2295227c-2.95813 0.480896 -5.8652954 0.721344 -8.721436 0.721344c-4.5756226 0 -7.9126587 -0.77963257 -10.011047 -2.3388367c-2.0983887 -1.5737915 -3.4608765 -4.240494 -4.0874634 -8.000107c6.440857 0 12.393555 -0.48817444 17.858093 -1.464508c5.4645386 -0.99090576 10.185913 -2.5792694 14.164124 -4.765091c3.9782104 -2.2003784 7.0892944 -5.0419464 9.333435 -8.524689c2.2441406 -3.4973145 3.36615 -7.7523956 3.36615 -12.765198c0 -3.1330109 -0.56103516 -5.9308624 -1.6830444 -8.393555c-1.1220703 -2.4626923 -2.6958618 -4.546509 -4.7213745 -6.2514496c-2.0109863 -1.7049408 -4.3570557 -3.0018616 -7.03833 -3.8907623c-2.6812744 -0.9034729 -5.58844 -1.3552094 -8.721436 -1.3552094z" fill-rule="evenodd"></path><path fill="#434343" d="m826.3241 216.97353c4.8379517 0 7.256897 2.1493988 7.256897 6.448181c0 1.2531891 -0.31329346 2.5063934 -0.9398804 3.759613c-0.6265869 1.2531891 -1.8798218 2.4189606 -3.7595825 3.4973145c-1.8798218 1.0783234 -4.524658 1.9963684 -7.9345703 2.7541351c-3.3952637 0.75775146 -7.8688965 1.2240448 -13.420898 1.3989105c1.0783691 -5.3625336 3.3370361 -9.675888 6.776062 -12.940048c3.4535522 -3.2787323 7.4609375 -4.918106 12.021973 -4.918106zm-153.4862 1.4863586c0.6265869 0 1.1365967 0.021865845 1.5300293 0.065582275c0.40802002 0.04371643 0.80877686 0.10928345 1.2022095 0.19671631c0.40802002 0.08743286 0.88165283 0.17486572 1.4207764 0.26229858l-4.961792 20.699722c-0.4517212 2.0546722 -0.88165283 4.3133698 -1.2896118 6.7760468c-0.39349365 2.4626923 -0.6848755 4.8088074 -0.8743286 7.0383453c-1.8798218 1.8798065 -3.6721802 3.2277222 -5.377136 4.043762c-1.6903687 0.80148315 -3.5628662 1.2022095 -5.6175537 1.2022095c-3.8615723 0 -6.5283203 -1.2313538 -8.000061 -3.6940308c-1.4718018 -2.4626923 -2.2077026 -5.8434296 -2.2077026 -10.142212c0 -3.3078766 0.53186035 -6.550186 1.5956421 -9.726913c1.0783691 -3.176712 2.5792847 -6.01828 4.5028076 -8.524689c1.923523 -2.506424 4.225891 -4.495514 6.9071655 -5.9673004c2.6958618 -1.4863586 5.6102295 -2.229538 8.743286 -2.229538zm79.234924 0c0.6265869 0 1.1365967 0.021865845 1.5300293 0.065582275c0.40802002 0.04371643 0.80877686 0.10928345 1.2022095 0.19671631c0.40802002 0.08743286 0.8815918 0.17486572 1.4207764 0.26229858l-4.961792 20.699722c-0.4517212 2.0546722 -0.8815918 4.3133698 -1.2896118 6.7760468c-0.39349365 2.4626923 -0.6849365 4.8088074 -0.8743286 7.0383453c-1.8798218 1.8798065 -3.6721802 3.2277222 -5.377136 4.043762c-1.6903687 0.80148315 -3.5628662 1.2022095 -5.6175537 1.2022095c-3.8615723 0 -6.5282593 -1.2313538 -8.000061 -3.6940308c-1.4718018 -2.4626923 -2.2077026 -5.8434296 -2.2077026 -10.142212c0 -3.3078766 0.5319214 -6.550186 1.5956421 -9.726913c1.0783691 -3.176712 2.5792847 -6.01828 4.5028076 -8.524689c1.923523 -2.506424 4.225891 -4.495514 6.9071655 -5.9673004c2.6958618 -1.4863586 5.6102905 -2.229538 8.743286 -2.229538zm-43.125244 -49.02797l-20.80896 3.2350159l-7.256958 30.339203c-1.4280396 -0.34973145 -2.8342285 -0.61203 -4.218628 -0.78689575c-1.3843384 -0.18943787 -2.885254 -0.28416443 -4.5027466 -0.28416443c-6.2660522 0 -12.043884 1.1657715 -17.333557 3.4973145c-5.2750854 2.331543 -9.843445 5.515564 -13.705078 9.552048c-3.847046 4.0219116 -6.8707275 8.743286 -9.071106 14.164124c-2.185852 5.4062653 -3.2787476 11.154968 -3.2787476 17.246124c0 4.0219116 0.4663086 7.8033752 1.3989258 11.344421c0.9472046 3.5410156 2.4262695 6.63031 4.437195 9.267883c2.0255737 2.6375427 4.626648 4.7213745 7.803406 6.2514343c3.1766968 1.5155029 7.001892 2.2732544 11.475525 2.2732544c3.7595825 0 7.184082 -0.6703186 10.273315 -2.0109558c3.0892944 -1.3406372 5.887146 -3.0455933 8.393555 -5.114807c0.4517212 1.2532043 0.9035034 2.3752441 1.3552246 3.36615c0.4517212 0.99090576 0.9398804 2.0182495 1.4644775 3.0820007l17.880005 -2.535553c-1.5300903 -4.0364685 -2.5646973 -8.626709 -3.1038818 -13.77066c-0.5391846 -5.1439667 -0.18218994 -10.273361 1.0710449 -15.388184l17.72699 -73.72775zm79.234924 0l-20.80896 3.2350159l-7.256958 30.339203c-1.4280396 -0.34973145 -2.8342896 -0.61203 -4.218628 -0.78689575c-1.3843384 -0.18943787 -2.885254 -0.28416443 -4.5027466 -0.28416443c-6.265991 0 -12.043884 1.1657715 -17.333557 3.4973145c-5.2750854 2.331543 -9.843445 5.515564 -13.705078 9.552048c-3.847046 4.0219116 -6.8707275 8.743286 -9.071106 14.164124c-2.185852 5.4062653 -3.2787476 11.154968 -3.2787476 17.246124c0 4.0219116 0.4663086 7.8033752 1.3989258 11.344421c0.9472046 3.5410156 2.4262695 6.63031 4.437195 9.267883c2.0255127 2.6375427 4.626648 4.7213745 7.803406 6.2514343c3.1766968 1.5155029 7.001892 2.2732544 11.475525 2.2732544c3.7595825 0 7.184021 -0.6703186 10.273315 -2.0109558c3.0892944 -1.3406372 5.887146 -3.0455933 8.393555 -5.114807c0.4517212 1.2532043 0.9034424 2.3752441 1.3552246 3.36615c0.4517212 0.99090576 0.9398804 2.0182495 1.4644775 3.0820007l17.880005 -2.535553c-1.5300903 -4.0364685 -2.5646973 -8.626709 -3.1038818 -13.77066c-0.53912354 -5.1439667 -0.1821289 -10.273361 1.0710449 -15.388184l17.72699 -73.72775zm41.376587 31.694412c-6.3533936 0 -12.153137 1.2750549 -17.399109 3.82518c-5.2313843 2.5501251 -9.6831665 5.909012 -13.355286 10.076645c-3.6721802 4.167633 -6.521057 8.940002 -8.54657 14.317123c-2.0109253 5.362549 -3.0164185 10.907242 -3.0164185 16.634094c0 4.036484 0.53912354 7.847107 1.6174927 11.431854c1.0783691 3.57016 2.7978516 6.703186 5.1585083 9.399017c2.3752441 2.6812744 5.4645386 4.8088074 9.267883 6.382599c3.817871 1.5592346 8.502808 2.3388367 14.05481 2.3388367c4.561035 0 8.786987 -0.40802002 12.677734 -1.22406c3.9053345 -0.80145264 7.111145 -1.6903687 9.617615 -2.666687l-1.4863892 -15.716064c-2.593811 0.99090576 -5.369812 1.7341003 -8.327942 2.2295227c-2.95813 0.480896 -5.8652954 0.721344 -8.721436 0.721344c-4.5756226 0 -7.9126587 -0.77963257 -10.011047 -2.3388367c-2.0983887 -1.5737915 -3.4608765 -4.240494 -4.0874634 -8.000107c6.440857 0 12.393616 -0.48817444 17.858154 -1.464508c5.4645386 -0.99090576 10.185913 -2.5792694 14.1640625 -4.765091c3.9782104 -2.2003784 7.0893555 -5.0419464 9.333435 -8.524689c2.2440796 -3.4973145 3.36615 -7.7523956 3.36615 -12.765198c0 -3.1330109 -0.5609741 -5.9308624 -1.6830444 -8.393555c-1.1220703 -2.4626923 -2.6958618 -4.546509 -4.7213745 -6.2514496c-2.0109253 -1.7049408 -4.3570557 -3.0018616 -7.03833 -3.8907623c-2.6812744 -0.9034729 -5.588379 -1.3552094 -8.721436 -1.3552094z" fill-rule="evenodd"></path><path fill="#434343" d="m899.6652 201.54163c-6.003723 0 -11.402649 0.56103516 -16.1969 1.6830902c-4.779663 1.1074829 -9.100281 2.2878265 -12.961914 3.541031l-16.109436 66.88614l20.022034 0l13.027466 -54.25209c0.97631836 -0.27687073 2.222229 -0.52459717 3.737793 -0.7431793c1.5300293 -0.21858215 2.921692 -0.32788086 4.1748657 -0.32788086c3.3953247 0 5.967285 0.20401001 7.7159424 0.61203c1.7486572 0.39344788 3.519165 0.81604004 5.3115234 1.2677765l5.9017334 -16.131363c-2.0546875 -0.88890076 -4.451782 -1.5300751 -7.191345 -1.923523c-2.7249756 -0.40802002 -5.2022095 -0.61203 -7.4317627 -0.61203z" fill-rule="evenodd"></path><path fill="#434343" d="m497.39005 88.446556c3.759613 0 6.353424 1.2313461 7.781494 3.6940384c1.4426575 2.4626923 2.163971 5.981865 2.163971 10.557518c0 2.7686996 -0.38616943 5.6977005 -1.1584778 8.787003c-0.75775146 3.0892944 -1.9016724 5.9308624 -3.4317322 8.524704c-1.5155029 2.593834 -3.3953247 4.743225 -5.6394043 6.448166c-2.2295532 1.7049484 -4.8233643 2.5574112 -7.7815247 2.5574112c-3.759613 0 -6.353424 -1.2313461 -7.781494 -3.6940384c-1.4280701 -2.4626846 -2.1421204 -5.974571 -2.1421204 -10.535652c0 -2.783287 0.37887573 -5.719574 1.1366272 -8.808861c0.75775146 -3.0892944 1.8943787 -5.9308624 3.4098816 -8.524704c1.5300598 -2.5938416 3.4098816 -4.7432327 5.6394043 -6.4481735c2.24411 -1.7049408 4.845215 -2.5574112 7.8033752 -2.5574112zm-143.42242 -15.038452c0.26229858 6.980057 0.6848755 13.901825 1.2677612 20.765305c0.58288574 6.8489075 1.2313538 13.340797 1.9453735 19.47567c0.7140503 6.1203003 1.4499512 11.78157 2.2077026 16.983826c0.77230835 5.187683 1.5155029 9.661331 2.2295227 13.420944l15.584869 0c1.6029358 -2.5064087 3.4317322 -5.391693 5.486389 -8.655853c2.0692444 -3.2787323 4.1967773 -6.7250366 6.382599 -10.338936c2.2003784 -3.628456 4.349762 -7.3443527 6.4481506 -11.147682c2.112976 -3.8033295 4.014618 -7.5410843 5.7049866 -11.213264c0.18945312 6.805191 0.54644775 13.566673 1.0710449 20.284416c0.5391846 6.703186 1.3479309 13.726959 2.4262695 21.07132l15.584869 0c4.9253845 -6.178589 9.399017 -12.488312 13.420929 -18.929214c4.0364685 -6.4554596 7.664917 -12.772484 10.885345 -18.951065c3.220459 -6.178589 6.0620117 -12.065735 8.524689 -17.661438c2.4627075 -5.595703 4.5902405 -10.630371 6.382599 -15.104027l-21.224274 0c-1.0783386 3.045578 -2.3096924 6.4481735 -3.6940308 10.207787c-1.3843689 3.759613 -2.9508667 7.701378 -4.699524 11.8252945c-1.7486572 4.1093445 -3.650299 8.29155 -5.7049866 12.546616c-2.054657 4.2550583 -4.2914734 8.400833 -6.710449 12.437325c-0.9034729 -8.961868 -1.464508 -17.420998 -1.683075 -25.377388c-0.21859741 -7.9709625 -0.32788086 -15.184174 -0.32788086 -21.639633l-16.655914 0c-1.3406372 3.4098816 -2.8852844 7.082062 -4.6339417 11.016541c-1.7486572 3.9344788 -3.6284485 7.941818 -5.6394043 12.022018c-2.0109558 4.0802 -4.1166077 8.1604 -6.3170166 12.240601c-2.1858215 4.065628 -4.400757 7.9782486 -6.644867 11.737862c-0.4517517 -4.1239166 -0.81604004 -8.291542 -1.092926 -12.502899c-0.26229858 -4.2113495 -0.4590149 -8.32798 -0.5901489 -12.349892c-0.13116455 -4.0219116 -0.21859741 -7.912674 -0.26229858 -11.672287c-0.04373169 -3.7741852 -0.065582275 -7.2714996 -0.065582275 -10.491943zm145.30222 -1.8797989c-6.353424 0 -11.992828 1.3697815 -16.918213 4.109337c-4.9253845 2.7249985 -9.093018 6.236885 -12.502869 10.53566c-3.3953247 4.2987823 -5.967285 9.136734 -7.7159424 14.513855c-1.7486572 5.362549 -2.6229858 10.732384 -2.6229858 16.109505c0 4.2987747 0.58288574 8.218681 1.7486572 11.75972c1.1657715 3.5264587 2.8852844 6.586609 5.158539 9.18045c2.2878113 2.5938263 5.1803894 4.612076 8.677673 6.054718c3.4973145 1.4280701 7.6139526 2.142105 12.349884 2.142105c6.542877 0 12.298859 -1.362503 17.267944 -4.0874786c4.9690857 -2.7395782 9.107605 -6.2587433 12.415466 -10.557526c3.3223877 -4.2987747 5.8288574 -9.12944 7.519165 -14.491989c1.704956 -5.377121 2.557434 -10.754242 2.557434 -16.131363c0 -4.28421 -0.58288574 -8.196831 -1.7486572 -11.737862c-1.1657715 -3.541031 -2.8925781 -6.6084595 -5.18042 -9.202309c-2.2731934 -2.5938416 -5.180359 -4.6047974 -8.7213745 -6.0328674c-3.5264587 -1.4426422 -7.621216 -2.1639557 -12.284302 -2.1639557z" fill-rule="evenodd"></path><path fill="#434343" d="m574.47626 88.446556c3.7595825 0 6.3534546 1.2313461 7.781494 3.6940384c1.442627 2.4626923 2.1639404 5.981865 2.1639404 10.557518c0 2.7686996 -0.38616943 5.6977005 -1.1584473 8.787003c-0.75775146 3.0892944 -1.9016724 5.9308624 -3.4317627 8.524704c-1.5155029 2.593834 -3.3952637 4.743225 -5.6394043 6.448166c-2.2294922 1.7049484 -4.8233643 2.5574112 -7.781494 2.5574112c-3.7595825 0 -6.3534546 -1.2313461 -7.781494 -3.6940384c-1.4281006 -2.4626846 -2.1420898 -5.974571 -2.1420898 -10.535652c0 -2.783287 0.3788452 -5.719574 1.1365967 -8.808861c0.75775146 -3.0892944 1.8944092 -5.9308624 3.409851 -8.524704c1.5300903 -2.5938416 3.409912 -4.7432327 5.6394043 -6.4481735c2.2441406 -1.7049408 4.845276 -2.5574112 7.803406 -2.5574112zm1.8798218 -16.918251c-6.3534546 0 -11.992859 1.3697815 -16.918274 4.109337c-4.925354 2.7249985 -9.092957 6.236885 -12.502869 10.53566c-3.3952637 4.2987823 -5.967285 9.136734 -7.7159424 14.513855c-1.7486572 5.362549 -2.6229248 10.732384 -2.6229248 16.109505c0 4.2987747 0.58288574 8.218681 1.7485962 11.75972c1.1657715 3.5264587 2.885315 6.586609 5.1585693 9.18045c2.2878418 2.5938263 5.180359 4.612076 8.677673 6.054718c3.4973145 1.4280701 7.6139526 2.142105 12.3498535 2.142105c6.5429077 0 12.298889 -1.362503 17.267944 -4.0874786c4.969116 -2.7395782 9.107605 -6.2587433 12.415466 -10.557526c3.3224487 -4.2987747 5.8288574 -9.12944 7.519226 -14.491989c1.704895 -5.377121 2.557373 -10.754242 2.557373 -16.131363c0 -4.28421 -0.58288574 -8.196831 -1.7486572 -11.737862c-1.1657104 -3.541031 -2.892517 -6.6084595 -5.180359 -9.202309c-2.2732544 -2.5938416 -5.18042 -4.6047974 -8.721436 -6.0328674c-3.5264282 -1.4426422 -7.621155 -2.1639557 -12.284241 -2.1639557zm88.233826 -31.694412c-10.564758 0 -18.761597 2.6011276 -24.590393 7.803383c-5.814331 5.187683 -9.836182 12.524754 -12.065735 22.011223l-13.967346 58.55815c-0.7140503 3.1330109 -1.6321411 6.513748 -2.7541504 10.142212c-1.1220703 3.6284637 -2.4699707 7.1840515 -4.043762 10.666794c-1.5592041 3.4973145 -3.3224487 6.8124847 -5.289673 9.945496c-1.9672241 3.1330109 -4.116638 5.770569 -6.448181 7.912674l17.858154 2.5574036c4.298767 -3.2204437 8.233215 -8.393555 11.803406 -15.519333c3.5847168 -7.111206 6.8999023 -17.06398 9.945435 -29.858315l8.196838 -34.251816l23.497498 0l4.043762 -16.393661l-23.650513 0l0.80877686 -3.4754486c0.9034424 -3.7741928 2.5355225 -6.9144897 4.896179 -9.420895c2.3753052 -2.5064049 6.0255737 -3.7596092 10.950989 -3.7596092c1.7923584 0 3.737732 0.20401001 5.8361206 0.61203c2.112976 0.4080162 3.9708862 1.0127602 5.5738525 1.8142319l6.7323 -15.716057c-1.5300903 -0.71403503 -3.7960815 -1.4936409 -6.7979126 -2.338829c-3.001831 -0.85975647 -6.513733 -1.2896347 -10.535645 -1.2896347z" fill-rule="evenodd"></path></g></svg>

