<?xml version="1.0" encoding="UTF-8" standalone="no"?>
<svg
   xmlns:dc="http://purl.org/dc/elements/1.1/"
   xmlns:cc="http://creativecommons.org/ns#"
   xmlns:rdf="http://www.w3.org/1999/02/22-rdf-syntax-ns#"
   xmlns:svg="http://www.w3.org/2000/svg"
   xmlns="http://www.w3.org/2000/svg"
   xmlns:sodipodi="http://sodipodi.sourceforge.net/DTD/sodipodi-0.dtd"
   xmlns:inkscape="http://www.inkscape.org/namespaces/inkscape"
   width="3cm"
   height="1.5cm"
   viewBox="0 0 85.039366 42.519683"
   version="1.1"
   id="svg21"
   sodipodi:docname="sitekaen.svg"
   inkscape:version="1.0.2 (e86c870879, 2021-01-15)">
  <metadata
     id="metadata25">
    <rdf:RDF>
      <cc:Work
         rdf:about="">
        <dc:format>image/svg+xml</dc:format>
        <dc:type
           rdf:resource="http://purl.org/dc/dcmitype/StillImage" />
        <dc:title></dc:title>
      </cc:Work>
    </rdf:RDF>
  </metadata>
  <sodipodi:namedview
     pagecolor="#ffffff"
     bordercolor="#666666"
     borderopacity="1"
     objecttolerance="10"
     gridtolerance="10"
     guidetolerance="10"
     inkscape:pageopacity="0"
     inkscape:pageshadow="2"
     inkscape:window-width="1870"
     inkscape:window-height="1053"
     id="namedview23"
     showgrid="false"
     units="cm"
     inkscape:zoom="3.7063423"
     inkscape:cx="15.549177"
     inkscape:cy="34.605877"
     inkscape:window-x="50"
     inkscape:window-y="0"
     inkscape:window-maximized="1"
     inkscape:current-layer="svg21" />
  <defs
     id="defs2" />
  <path
     id="shape0"
     fill="#18562f"
     fill-rule="evenodd"
     stroke="#000000"
     stroke-opacity="0"
     stroke-width="0"
     stroke-linecap="square"
     stroke-linejoin="bevel"
     d="m 43.920778,36.627201 c 10.35315,-2.726133 18.812621,-5.808957 27.939535,-8.254832 -4.392716,3.515946 -15.67201,16.509667 -36.709444,12.076514 0,0 0.957189,-1.732495 8.769909,-3.821682 z" />
  <path
     id="shape01"
     fill="#18562f"
     fill-rule="evenodd"
     stroke="#000000"
     stroke-opacity="0"
     stroke-width="0"
     stroke-linecap="square"
     stroke-linejoin="bevel"
     d="m 27.933172,32.958395 20.395211,1.078699 c -4.626027,5.16026 -14.402828,7.514895 -29.330363,7.064001 z" />
  <path
     id="path6"
     fill="#216247"
     fill-rule="evenodd"
     d="m 20.306752,27.833891 c 1.500003,0.756647 2.515818,1.981719 3.047444,3.675171 l -1.730373,0.162134 1.042688,0.756662 -2.524388,0.162134 -0.384171,0.972843 5.458879,-0.757297 c 2.54373,-0.215759 4.638773,-0.233555 6.285135,-0.05338 2.469512,0.270211 5.595345,1.166634 7.296585,2.193519 1.701335,1.026885 2.871627,3.057346 8.149096,2.598745 5.277468,-0.458605 14.202594,-1.834408 19.247235,-4.509585 5.044639,-2.675179 7.431142,-4.947011 10.499315,-6.768303 3.068501,-1.821293 6.584224,-1.624645 2.151087,3.328787 -4.433134,4.953412 -16.654099,11.653268 -27.823122,13.223022 -2.770026,0.852459 -31.029568,-0.658028 -43.5779992,0 -3.0131542,0.157984 4.5690732,-13.595772 3.8028702,-13.452365"
     style="stroke-width:0.320914" />
  <path
     id="shape1"
     fill="#1f553f"
     fill-rule="evenodd"
     d="m 19.785406,17.132624 c 1.68065,-1.03214 5.846089,-2.9613 7.370476,-3.636883 1.016269,-0.450394 2.535576,-0.983353 4.557958,-1.598885 0.02438,2.640784 -0.649916,4.944526 -2.022865,6.911227 -1.455801,1.86912 -7.817196,4.345824 -9.905569,-1.675459 z"
     style="stroke-width:0.320914" />
  <path
     id="shape2"
     fill="#2f735c"
     fill-rule="evenodd"
     d="m 24.042297,18.416249 c 6.76072,-2.068046 6.97793,-2.218168 8.37659,-2.432108 0.932417,-0.142642 1.796246,-0.241446 2.591459,-0.29653 C 31.390913,27.604414 25.8129,31.743262 18.276244,28.104099 6.971305,22.645363 6.971305,22.645363 24.042297,18.416226 Z"
     style="stroke-width:0.320914" />
  <path
     id="shape3"
     fill="#216247"
     fill-rule="evenodd"
     d="M 6.711737,23.121298 C 5.9823441,22.450723 5.4505765,21.770429 5.1164228,21.080393 4.7822691,20.390387 4.5541111,19.578278 4.4319461,18.644066 L 6.202422,21.44135 C 5.0777957,19.052796 5.469438,17.006602 7.3773463,15.302761 10.2392,12.747014 13.351676,12.805401 15.709624,13.495425 c 2.357947,0.690025 4.97243,2.476129 6.308482,3.736757 0.890733,0.840416 1.336085,1.219943 1.336085,1.138539 l 5.894046,-1.650741 c -1.131809,3.400595 -2.794504,5.765261 -4.988047,7.093994 -2.193578,1.328737 -4.100581,1.988683 -5.72104,1.979824 l -2.111795,0.01184 -9.8099369,0.05461 c -0.021662,-0.0091 0.00979,-0.921823 0.094321,-2.738873 z"
     style="stroke-width:0.320914" />
  <path
     id="shape4"
     fill="#91cc98"
     fill-rule="evenodd"
     d="m 7.6321346,32.512685 c -1.9071582,0.901002 -3.1482743,2.346626 -3.7233629,4.336887 l 2.2503972,-0.985229 c -0.3252041,1.536317 -0.4414422,2.836838 -0.3487095,3.901496 0.092751,1.064654 0.4077791,2.256956 0.9451301,3.576839 0.3818625,-1.438226 0.6915753,-2.653426 0.9291265,-3.645536 0.2375395,-0.992111 0.420482,-1.892878 0.5487671,-2.702312 0.3777943,0.546215 0.7242275,0.941919 1.0392588,1.187141 0.3150634,0.245195 0.8130291,0.50918 1.4939231,0.791918 0.341711,-2.150588 0.923526,-3.969039 1.745446,-5.455327 1.232864,-2.22943 1.232864,-2.22943 -4.8799764,-1.005877 z"
     style="stroke-width:0.320914" />
  <path
     id="shape5"
     fill="#a8e3af"
     fill-rule="evenodd"
     d="m 6.5635203,22.811838 c 2.0624084,-0.421092 4.2083607,-0.548484 6.4378327,-0.382154 2.229504,0.166316 4.708683,0.581213 7.437608,1.244703 -0.450912,2.331919 -1.113832,3.970306 -1.988753,4.915122 -1.312349,1.41721 -1.568363,1.695873 -2.244732,2.054151 -0.450949,0.238881 -1.131812,0.465325 -2.042661,0.679406 l 2.255535,1.533989 c -1.016815,0.532554 -1.899822,0.819175 -2.648984,0.859877 -0.749129,0.04068 -2.242957,-0.43261 -4.4814159,-1.419882 -0.3233773,0.4901 -0.669206,0.868731 -1.037492,1.1359 -0.3682887,0.267172 -0.8264014,0.460897 -1.3743438,0.581213 L 7.3450082,29.016772 C 7.2857338,28.983231 7.0252256,26.914847 6.5635203,22.811853 Z"
     style="stroke-width:0.320914" />
  <path
     id="shape6"
     fill="#f5ffa5"
     fill-rule="evenodd"
     d="m 6.8895968,22.841033 0.4958298,3.381134 1.4093623,2.003709 c -0.05029,0.380418 -0.2658863,0.75195 -0.6467478,1.11466 -0.3808365,0.362701 -0.735679,0.622807 -1.0644215,0.780257 C 6.1045092,29.303397 5.4137492,28.817727 5.0113075,28.66378 4.6089015,28.509854 4.0616828,28.387256 3.3696624,28.295949 L 2.5213395,29.502457 C 1.4470203,28.455018 1.0419039,27.343006 1.3059937,26.166435 1.5700729,24.989842 1.8943577,24.284773 2.2788098,24.05123 3.6172188,23.564668 4.4822353,23.26301 4.8738748,23.146232 5.461349,22.971076 5.461349,22.971076 6.8895968,22.841021 Z"
     style="stroke-width:0.320914" />
  <path
     id="shape7"
     fill="#18562f"
     fill-rule="evenodd"
     d="m 29.64056,34.716358 22.274017,1.375806 c -4.62603,5.160258 -14.402831,7.514897 -29.330365,7.064003 z"
     style="stroke-width:0.320914" />
  <path
     id="shape8"
     fill="#c9e3d8"
     fill-rule="evenodd"
     d="m 18.775209,42.359742 c 0.395811,0.244603 1.055495,0.652236 1.979052,1.222938 4.338389,-1.513387 7.54626,-2.201288 11.020594,-8.713437 -0.977885,-0.142681 -1.676372,-0.244603 -2.095466,-0.305724 0,0 -2.975043,4.70067 -10.90418,7.796235 z"
     style="stroke-width:0.320914" />
  <path
     id="shape9"
     fill="#18562f"
     fill-rule="evenodd"
     d="m 37.479166,39.30238 c 20.75286,-1.961799 35.576341,-3.363081 44.470422,-4.203852 -4.392711,3.515946 -21.880794,11.312182 -42.918228,6.879029 0,0 -0.517399,-0.891729 -1.552194,-2.675177 z"
     style="stroke-width:0.320914" />
  <path
     id="shape10"
     fill="#c9e3d8"
     fill-rule="evenodd"
     d="m 32.939006,42.818331 c 1.156385,-0.129936 2.734453,-0.04076 5.743127,-0.649655 3.000072,-2.008676 3.123732,-2.962124 8.062299,-6.416934 -2.37227,-0.107007 -4.251625,-0.291914 -5.268314,-0.337804 -3.285478,3.42678 -3.104424,2.869326 -8.537112,7.404385 z"
     style="stroke-width:0.320914" />
  <path
     id="shape11"
     fill="#ffffff"
     fill-rule="evenodd"
     d="m 8.8779175,24.672162 c -0.020163,1.325949 0.135358,2.298791 0.4664687,2.918524 3.7317228,1.799757 5.7622218,-0.226965 6.9969948,-1.702471 -2.003044,-1.026889 -3.859763,-1.270098 -7.4634635,-1.216053 z"
     style="stroke-width:0.320914" />
  <path
     id="shape12"
     fill="#012712"
     fill-rule="evenodd"
     d="m 8.8371554,24.591083 6.8538236,1.178366 0.173874,0.386376 c -0.620423,0.653924 -1.124563,1.159237 -1.512419,1.515929 1.881228,-0.970597 2.419034,-1.690935 2.560153,-2.242066 -1.975621,-0.540464 -6.426219,-0.922016 -8.0754316,-0.838605 z"
     style="stroke-width:0.320914" />
  <path
     id="shape13"
     fill="#012712"
     fill-rule="evenodd"
     d="m 10.839605,24.837327 c -1.0477333,2.764349 2.412372,4.203849 4.152132,0.707012 0,0 -1.384049,-0.235685 -4.152132,-0.707012 z"
     style="stroke-width:0.320914" />
</svg>
