<?xml version="1.0" encoding="UTF-8" standalone="no"?>
<svg
   width="3cm"
   height="1.5cm"
   viewBox="0 0 85.039366 42.519683"
   version="1.1"
   id="svg21"
   sodipodi:docname="sitebird.svg"
   inkscape:version="1.4.2 (ebf0e940d0, 2025-05-08)"
   xmlns:inkscape="http://www.inkscape.org/namespaces/inkscape"
   xmlns:sodipodi="http://sodipodi.sourceforge.net/DTD/sodipodi-0.dtd"
   xmlns="http://www.w3.org/2000/svg"
   xmlns:svg="http://www.w3.org/2000/svg"
   xmlns:rdf="http://www.w3.org/1999/02/22-rdf-syntax-ns#"
   xmlns:cc="http://creativecommons.org/ns#"
   xmlns:dc="http://purl.org/dc/elements/1.1/">
  <metadata
     id="metadata25">
    <rdf:RDF>
      <cc:Work
         rdf:about="">
        <dc:format>image/svg+xml</dc:format>
        <dc:type
           rdf:resource="http://purl.org/dc/dcmitype/StillImage" />
        <dc:title />
      </cc:Work>
    </rdf:RDF>
  </metadata>
  <sodipodi:namedview
     pagecolor="#ffffff"
     bordercolor="#666666"
     borderopacity="1"
     objecttolerance="10"
     gridtolerance="10"
     guidetolerance="10"
     inkscape:pageopacity="0"
     inkscape:pageshadow="2"
     inkscape:window-width="2516"
     inkscape:window-height="1413"
     id="namedview23"
     showgrid="false"
     units="cm"
     inkscape:zoom="11.313709"
     inkscape:cx="64.169938"
     inkscape:cy="5.7010482"
     inkscape:window-x="44"
     inkscape:window-y="0"
     inkscape:window-maximized="1"
     inkscape:current-layer="svg21"
     inkscape:showpageshadow="0"
     inkscape:pagecheckerboard="1"
     inkscape:deskcolor="#d1d1d1"
     inkscape:document-units="cm" />
  <defs
     id="defs2" />
  <path
     id="shape0-6"
     d="m 33.331699,11.02525 -2.653801,1.61093 c -0.524678,0.169012 -1.004767,0.331687 -1.44166,0.486291 l -1.050045,0.39018 c -0.0069,0.0082 -0.01277,0.01713 -0.01864,0.02582 -0.218964,0.08755 -0.500745,0.184853 -0.685685,0.266815 -1.191733,0.528156 -4.031588,1.838987 -5.966032,2.860368 -1.39869,-1.099085 -3.400923,-2.321291 -5.24305,-2.860368 -2.309082,-0.675724 -5.356816,-0.732626 -8.159363,1.770157 -1.8683696,1.668532 -2.2517799,3.672881 -1.150459,6.011936 l -1.7328683,-2.73987 c 0.1196334,0.914852 0.3426773,1.709845 0.6699055,2.385552 0.2881179,0.59497 0.7258183,1.182791 1.3139904,1.762985 -0.9839438,0.09094 -1.0415791,0.107425 -1.5521152,0.259641 C 5.2783535,23.370045 4.4320725,23.665722 3.1213999,24.142201 2.744915,24.370904 2.427506,25.06139 2.1688997,26.2136 c -0.2586163,1.152188 0.1371349,2.242029 1.1891904,3.267762 l 0.8305675,-1.182017 c 0.677679,0.08942 1.2139935,0.20932 1.6080603,0.360056 0.3939835,0.150711 1.0700046,0.625861 2.0283648,1.425881 v 0.0015 h 0.00143 L 6.429322,31.660415 c 0.2687233,0.176441 1.8448435,0.97176 3.4097764,0.193656 v 0.0015 c -0.02982,0.685902 -0.2827387,1.669801 -0.6168297,2.767125 -0.075441,0.02886 -0.152489,0.06148 -0.2309526,0.09755 -1.8676351,0.88233 -3.0832954,2.298501 -3.6464666,4.247517 l 2.2033724,-0.96541 c -0.3184647,1.504479 -0.4322194,2.778879 -0.3414082,3.821473 0.090828,1.042591 0.3990298,2.209053 0.925245,3.501584 0.2847502,-1.072468 0.528779,-2.018252 0.7315882,-2.837416 3.0009711,-0.132985 6.8031791,-0.154186 10.8906261,-0.120497 0.372579,0.230233 0.858737,0.531444 1.458873,0.902293 0.704445,-0.245736 1.378559,-0.469058 2.028365,-0.70003 l -0.23669,0.282594 c 3.955835,0.119488 7.542997,0.0376 10.760089,-0.245297 4.978921,0.104569 9.528088,0.19639 12.710989,0.173573 17.223386,1.458742 30.887184,-4.796103 34.664382,-7.81939 -3.187338,0.301304 -7.152218,0.676319 -11.894768,1.124639 0.769104,-0.425534 1.510698,-0.859617 2.219152,-1.296777 0.404771,-0.249768 0.798183,-0.501549 1.180583,-0.753106 0.58711,-0.386221 1.146708,-0.77299 1.675481,-1.159066 0.402511,-0.293888 0.786649,-0.586796 1.151893,-0.877906 0.648682,-0.517016 1.236351,-1.028236 1.754378,-1.526294 0.317871,-0.305618 0.610021,-0.606343 0.873602,-0.900858 4.341268,-4.85078 0.899085,-5.044138 -2.105826,-3.260589 -0.695678,0.41296 -1.356491,0.849995 -2.021193,1.309687 -0.502188,0.347302 -1.006845,0.708201 -1.532032,1.081603 -0.331551,0.235728 -0.67069,0.475578 -1.022789,0.721547 -0.562841,0.393191 -1.158556,0.800368 -1.803151,1.219314 -0.179895,0.116921 -0.362787,0.233983 -0.550843,0.352884 -0.820349,0.518679 -1.722804,1.057811 -2.738436,1.613798 2.159716,-1.738647 3.787468,-3.317842 4.934636,-4.236041 -8.032841,2.152681 -15.538378,4.808861 -24.336074,7.262809 h -0.0015 l -0.285463,-0.01722 c 0.009,-0.0063 0.01821,-0.01232 0.02725,-0.01865 -0.08544,-0.0038 -0.169785,-0.0074 -0.253905,-0.01148 0.671444,-0.517831 1.272376,-1.074638 1.804585,-1.668308 L 34.664303,33.205346 C 33.670517,32.95403 32.65793,32.763773 31.737948,32.66311 30.125704,32.486669 28.075014,32.503467 25.583999,32.71475 l -5.346333,0.74163 0.375835,-0.952499 2.473056,-0.159229 -1.021355,-0.740195 1.694129,-0.159228 c -0.260621,-0.830188 -0.63941,-1.545675 -1.137548,-2.145993 5.194751,0.61777 9.229948,-3.366201 12.107071,-11.952147 1.615434,-0.217408 2.400043,-1.16083 3.361003,-1.950902 l -4.392399,0.70003 c -0.0045,5.48e-4 -0.0084,8.82e-4 -0.01291,0.0015 -0.338785,0.04171 -0.688984,0.08987 -1.048609,0.144884 -0.08434,0.0129 -0.163657,0.02585 -0.240994,0.03873 l 0.0043,-0.02295 -0.46047,0.110455 c -0.03112,0.0066 -0.06882,0.01738 -0.100415,0.02438 l -0.04734,0.0071 0.0071,0.0015 c -0.15264,0.03449 -0.301513,0.06804 -0.484857,0.117629 l -0.06169,0.01435 c 0.03385,-0.09318 0.06616,-0.188227 0.09755,-0.282594 l 0.348581,-1.308252 c 0.07661,-0.377206 0.128067,-0.766211 0.169268,-1.1605 0.0018,0.0061 0.0039,0.01109 0.0058,0.01722 z"
     style="stroke:#000000;stroke-width:2.22072;stroke-miterlimit:4.7;stroke-dasharray:none;stroke-opacity:1" />
  <path
     id="shape0"
     fill="#18562f"
     fill-rule="evenodd"
     stroke="#000000"
     stroke-opacity="0"
     stroke-width="0"
     stroke-linecap="square"
     stroke-linejoin="bevel"
     d="m 43.898849,36.456855 c 10.138598,-2.669639 18.42276,-5.688576 27.360533,-8.083764 -4.301684,3.443083 -15.347233,16.16753 -35.948699,11.826247 0,0 0.937353,-1.696591 8.588166,-3.742483 z" />
  <path
     id="shape01"
     fill="#18562f"
     fill-rule="evenodd"
     stroke="#000000"
     stroke-opacity="0"
     stroke-width="0"
     stroke-linecap="square"
     stroke-linejoin="bevel"
     d="m 28.242561,32.864079 19.972553,1.056344 c -4.53016,5.053322 -14.104352,7.359161 -28.722538,6.917611 z" />
  <path
     d="m 71.463592,34.788301 c -0.710499,-1.127649 -2.399897,-3.792783 -2.399897,-3.792783 -0.98214,0.620975 -2.081305,1.269669 -3.352397,1.94373 -4.940099,2.619738 -13.679625,3.96625 -18.847726,4.415352 -5.168102,0.449097 -6.315408,-1.539176 -7.981486,-2.544781 -1.665984,-1.005604 -4.726845,-1.882816 -7.14518,-2.147427 -1.612244,-0.176441 -3.662935,-0.159647 -6.15395,0.05164 l -5.346333,0.741631 0.375835,-0.9525 2.473055,-0.159228 -1.021354,-0.740196 1.694129,-0.159227 C 23.237679,29.786155 22.243473,28.586351 20.774555,27.845384 L 9.5009206,30.906579 c 1.7899124,0.775597 -4.2005194,11.832456 -1.3225971,11.613609 12.2883855,-0.644392 39.9619365,0.834793 42.6745575,0 7.259997,-1.02036 14.974574,-4.254046 20.610711,-7.731887 z"
     style="fill:#216247;fill-rule:evenodd;stroke-width:0.314264"
     id="path23" />
  <path
     d="m 74.319656,32.876131 c -0.721509,-0.838691 -2.112979,-2.506069 -2.901967,-3.452811 -0.562841,0.39319 -1.158556,0.800368 -1.803151,1.219314 0.745117,0.803655 2.261009,2.452299 3.029637,3.392562 0.58711,-0.386221 1.146707,-0.772989 1.675481,-1.159065 z"
     style="fill:#216247;fill-rule:evenodd;stroke-width:0.314264"
     id="path21" />
  <path
     d="m 77.225927,30.47193 c -1.145521,-0.936687 -2.673379,-2.296223 -3.253417,-2.851761 -0.502188,0.347303 -1.006845,0.708202 -1.532032,1.081604 0,0 2.03023,2.170605 3.031071,3.296451 0.648682,-0.517017 1.236351,-1.028236 1.754378,-1.526294 z"
     style="fill:#216247;fill-rule:evenodd;stroke-width:0.314264"
     id="path18" />
  <path
     style="fill:#012712;fill-opacity:1;stroke:none;stroke-width:1.59059;stroke-miterlimit:50.7;paint-order:stroke fill markers"
     d="m 31.789644,16.398666 6.299734,-1.003757 c -0.96096,0.790072 -1.745929,1.734139 -3.361364,1.951547 z"
     id="path7"
     sodipodi:nodetypes="cccc" />
  <path
     id="shape1"
     fill="#1f553f"
     fill-rule="evenodd"
     d="m 20.263645,17.366272 c 1.645821,-1.010751 5.724938,-2.899932 7.217734,-3.561515 0.995209,-0.44106 2.483031,-0.962974 4.463502,-1.56575 0.02388,2.586058 -0.636448,4.842058 -1.980944,6.768003 -1.425632,1.830385 -7.655197,4.255763 -9.700292,-1.640738 z"
     style="stroke-width:0.314264" />
  <path
     id="shape2"
     fill="#2f735c"
     fill-rule="evenodd"
     d="m 24.432318,18.623296 c 6.620615,-2.025189 6.833324,-2.1722 8.202999,-2.381707 0.913094,-0.139686 1.759022,-0.236442 2.537755,-0.290385 C 31.628646,27.621051 26.166229,31.674127 18.785758,28.11038 7.7150957,22.764768 7.7150957,22.764768 24.432318,18.623273 Z"
     style="stroke-width:0.314264" />
  <path
     id="shape3"
     fill="#216247"
     fill-rule="evenodd"
     d="M 7.4609068,23.23084 C 6.7466294,22.574162 6.2258819,21.907966 5.898653,21.23223 5.5714241,20.556523 5.3479943,19.761243 5.228361,18.846392 l 1.7337856,2.739314 C 5.8608264,19.246651 6.2443525,17.242861 8.1127224,15.57433 c 2.8025466,-2.502783 5.8505216,-2.445606 8.1596046,-1.769882 2.309082,0.675725 4.869384,2.424815 6.177749,3.659319 0.872274,0.822999 1.308396,1.194661 1.308396,1.114944 3.316953,-0.839498 6.790861,-2.098239 9.937889,-2.483849 -1.108354,3.330123 -6.90258,6.513102 -9.050665,7.814299 -2.14812,1.301201 -4.015603,1.947471 -5.602481,1.938796 l -2.068031,0.01159 -9.6066415,0.05348 c -0.021213,-0.0089 0.00959,-0.90272 0.092366,-2.682115 z"
     style="stroke-width:0.314264"
     sodipodi:nodetypes="cccccsccccccccc" />
  <path
     id="shape4"
     fill="#91cc98"
     fill-rule="evenodd"
     d="m 8.9898392,34.719058 c -1.8676354,0.88233 -3.0830313,2.297996 -3.6462021,4.247012 l 2.2037613,-0.964812 c -0.3184648,1.504479 -0.432294,2.778049 -0.3414831,3.820644 0.090829,1.04259 0.3993286,2.210184 0.9255438,3.502714 0.373949,-1.408421 0.6772435,-2.598438 0.9098718,-3.569988 0.2326169,-0.971551 0.4117682,-1.853651 0.5373948,-2.646311 0.3699651,0.534896 0.7092193,0.9224 1.0177223,1.16254 0.308533,0.240114 0.79618,0.498628 1.462963,0.775507 0.935113,-1.789476 0.569833,-8.000127 -3.0695718,-6.327306 z"
     style="stroke-width:0.314264"
     sodipodi:nodetypes="cccccccccc" />
  <path
     id="shape5"
     fill="#a8e3af"
     fill-rule="evenodd"
     d="m 7.3157617,22.927793 c 2.0196682,-0.412365 4.1211493,-0.537117 6.3044183,-0.374234 2.183302,0.162869 4.611104,0.569168 7.283476,1.218908 -0.441568,2.283594 -1.09075,3.888028 -1.947539,4.813264 -1.285153,1.387841 -1.535862,1.660729 -2.198214,2.011582 -0.441604,0.233931 -1.108357,0.455682 -2.00033,0.665326 l 0.93435,0.9538 c -0.344551,0.618197 -3.502758,1.745309 -5.8535703,-0.362794 -1.5649327,0.778103 -3.140869,-0.0181 -3.4095926,-0.194538 l 1.3963226,-1.573825 c -0.058046,-0.03284 -0.057184,-3.139508 -0.509321,-7.157474 z"
     style="stroke-width:0.314264"
     sodipodi:nodetypes="ccccccccccsc" />
  <path
     style="fill:#012712;fill-opacity:1;stroke:none;stroke-width:1.59059;stroke-miterlimit:50.7;paint-order:stroke fill markers"
     d="m 9.542279,24.670166 -1.1234797,1.237017 1.8220077,-0.01015 0.184823,-1.075001 z"
     id="path1"
     sodipodi:nodetypes="ccccc" />
  <path
     id="shape6"
     fill="#f5ffa5"
     fill-rule="evenodd"
     d="m 7.6350807,22.956383 0.4855546,3.311065 1.3801555,1.962186 c -0.049248,0.372534 -0.2603763,0.736367 -0.633345,1.09156 -0.3729443,0.355185 -0.7204332,0.6099 -1.0423631,0.764088 C 6.8662628,29.284825 6.1898177,28.80922 5.795716,28.658463 5.4016492,28.507727 4.8657708,28.387669 4.1880914,28.298255 L 3.3573487,29.47976 C 2.305293,28.454027 1.908572,27.36506 2.167189,26.212871 c 0.2586065,-1.15221 0.5761711,-1.842667 0.952656,-2.07137 1.3106726,-0.476479 2.157763,-0.771886 2.5412864,-0.886244 0.5752997,-0.171526 0.5752997,-0.171526 1.9739493,-0.298886 z"
     style="stroke-width:0.314264" />
  <path
     id="shape7"
     fill="#18562f"
     fill-rule="evenodd"
     d="m 29.914566,34.585611 21.812424,1.347294 c -4.530163,5.05332 -14.104356,7.359163 -28.72254,6.917613 z"
     style="stroke-width:0.314264" />
  <path
     id="shape8"
     fill="#c9e3d8"
     fill-rule="evenodd"
     d="m 19.274382,42.070598 c 0.387609,0.239534 1.033622,0.638719 1.93804,1.197594 4.248483,-1.482024 7.389876,-2.155669 10.792209,-8.532865 -0.957619,-0.139724 -1.641631,-0.239534 -2.05204,-0.299388 0,0 -2.91339,4.603256 -10.678209,7.634671 z"
     style="stroke-width:0.314264" />
  <path
     id="shape9"
     fill="#18562f"
     fill-rule="evenodd"
     d="m 37.59073,39.076595 c 20.32279,-1.921144 34.839077,-3.293387 43.548843,-4.116734 -4.301679,3.443084 -21.42735,11.077755 -42.028816,6.736472 0,0 -0.506677,-0.873249 -1.520027,-2.619738 z"
     style="stroke-width:0.314264" />
  <path
     id="shape10"
     fill="#c9e3d8"
     fill-rule="evenodd"
     d="m 33.144657,42.519683 c 1.132421,-0.127243 2.677786,-0.03992 5.62411,-0.636192 2.9379,-1.967049 3.058998,-2.900738 7.895221,-6.283953 -2.323109,-0.104789 -4.163517,-0.285864 -5.159137,-0.330803 -3.217392,3.355765 -3.04009,2.809863 -8.360194,7.25094 z"
     style="stroke-width:0.314264" />
  <path
     id="shape11"
     fill="#ffffff"
     fill-rule="evenodd"
     d="m 9.5821967,24.749565 c -0.019745,1.298471 0.1325529,2.251152 0.4568023,2.858042 3.654388,1.76246 5.642808,-0.222261 6.851993,-1.66719 -1.961534,-1.005608 -3.779776,-1.243777 -7.3087953,-1.190852 z"
     style="stroke-width:0.314264" />
  <path
     d="m 9.5425208,24.670864 1.9279512,0.331367 c -0.908982,2.622688 2.351989,3.961955 4.050991,0.695726 l 0.733023,0.126235 0.169269,0.378704 c -0.607565,0.640373 -1.100572,1.135394 -1.480391,1.484694 1.153798,-0.265638 2.197058,-0.613474 3.475763,-1.632446 l -1.151893,-0.139145 c 0.09294,-0.152052 0.149995,-0.293312 0.183614,-0.424609 -1.934679,-0.529263 -6.293292,-0.902208 -7.9083272,-0.820526 z"
     style="fill:#012712;stroke-width:1.89719;stroke-miterlimit:50.7;paint-order:stroke fill markers"
     id="path5" />
  <path
     style="fill:#012712;fill-opacity:1;stroke:none;stroke-width:1.59059;stroke-miterlimit:50.7;paint-order:stroke fill markers"
     d="m 30.677454,12.635348 2.653315,-1.611169 -1.458621,2.77463 c -0.225118,-0.777325 -0.62335,-1.165145 -1.194694,-1.163461 z"
     id="path8"
     sodipodi:nodetypes="cccc" />
  <path
     style="fill:#012712;fill-opacity:1;stroke:none;stroke-width:1.59059;stroke-miterlimit:50.7;paint-order:stroke fill markers"
     d="m 32.398808,16.256598 -0.589192,2.690063 -1.622804,1.395042 0.621498,-3.703615 z"
     id="path9"
     sodipodi:nodetypes="ccccc" />
  <path
     style="fill:#012712;fill-opacity:1;stroke:none;stroke-width:1.59059;stroke-miterlimit:50.7;paint-order:stroke fill markers"
     d="m 29.235099,13.120772 c 0.407461,1.188595 1.228054,1.795745 2.46178,1.821449 l -0.348084,1.308395 c -0.45667,0.548006 -3.772972,-2.007488 -3.163237,-2.739171 z"
     id="path10"
     sodipodi:nodetypes="ccccc" />
  <path
     d="m 77.225927,30.47193 c 0.31787,-0.305617 0.610022,-0.606342 0.873603,-0.900858 4.341267,-4.85078 0.899084,-5.044139 -2.105828,-3.260589 -0.695678,0.41296 -1.356491,0.849994 -2.021192,1.309686 0.580038,0.555538 2.107896,1.915074 3.253417,2.851761 z"
     style="fill:#012712;stroke-width:1.59059;stroke-miterlimit:50.7;paint-order:stroke fill markers"
     id="path19" />
  <path
     d="m 75.471549,31.998224 c -1.000841,-1.125846 -3.031071,-3.296451 -3.031071,-3.296451 -0.331551,0.235729 -0.67069,0.475577 -1.022789,0.721547 0.788988,0.946742 2.180458,2.61412 2.901967,3.452811 0.402511,-0.293888 0.786648,-0.586797 1.151893,-0.877907 z"
     style="fill:#012712;stroke-width:1.59059;stroke-miterlimit:50.7;paint-order:stroke fill markers"
     id="path20" />
  <path
     d="m 72.644175,34.035196 c -0.768628,-0.940263 -2.28452,-2.588907 -3.029637,-3.392562 -0.179895,0.116921 -0.362788,0.233983 -0.550843,0.352884 0,0 1.689398,2.665134 2.399897,3.792783 0.404772,-0.249768 0.798182,-0.501549 1.180583,-0.753105 z"
     style="fill:#012712;stroke-width:1.59059;stroke-miterlimit:50.7;paint-order:stroke fill markers"
     id="path22" />
</svg>
