<svg version="1.1" viewBox="0.0 0.0 960.0 128.0" fill="none" stroke="none" stroke-linecap="square" stroke-miterlimit="10" xmlns:xlink="http://www.w3.org/1999/xlink" xmlns="http://www.w3.org/2000/svg"><clipPath id="p.0"><path d="m0 0l960.0 0l0 128.0l-960.0 0l0 -128.0z" clip-rule="nonzero"/></clipPath><g clip-path="url(#p.0)"><path fill="#000000" fill-opacity="0.0" d="m0 0l960.0 0l0 128.0l-960.0 0z" fill-rule="evenodd"/><path fill="#ffffff" d="m146.3412 23.661953l26.117981 79.85756l15.982651 0l26.229355 -79.85756l-18.265884 0l-15.9826355 53.294056l-15.926971 -53.294056z" fill-rule="evenodd"/><path fill="#ffffff" d="m222.30054 23.661953l0 79.85756l54.741974 0l0 -15.982651l-38.759323 0l0 -15.926956l26.229355 0l0 -15.982651l-26.229355 0l0 -15.982651l38.759323 0l0 -15.982647z" fill-rule="evenodd"/><path fill="#ffffff" d="m288.23593 23.661953l0 79.85756l15.9826355 0l0 -52.570107l30.795837 52.570107l17.096436 0l0 -79.85756l-15.982666 0l0 52.62579l-30.795837 -52.62579z" fill-rule="evenodd"/><path fill="#ffffff" d="m390.98154 39.6446c3.3041687 0 6.41037 0.63113785 9.318573 1.8934174c2.9205627 1.2622757 5.4636536 2.9824371 7.6293335 5.1604805c2.1780396 2.1656723 3.8858337 4.696411 5.123352 7.592224c1.2499084 2.8958092 1.8748474 5.9958115 1.8748474 9.300007c0 3.3041916 -0.62493896 6.4165726 -1.8748474 9.337135c-1.2375183 2.9081802 -2.9453125 5.4513016 -5.123352 7.6293488c-2.16568 2.1656647 -4.7087708 3.8734512 -7.6293335 5.123352c-2.9082031 1.2375259 -6.0144043 1.8562927 -9.318573 1.8562927l-7.963501 0l0 -47.892258zm-24.057526 -15.982647l0 79.85756l24.057526 0c3.6754456 0 7.2085876 -0.47026825 10.599396 -1.4107819c3.4031982 -0.9528961 6.589813 -2.301796 9.559906 -4.046707c2.9700623 -1.7449112 5.6616516 -3.8301468 8.074829 -6.255699c2.4131775 -2.4379272 4.492218 -5.129547 6.237152 -8.074852c1.7449036 -2.957695 3.087616 -6.1319504 4.028137 -9.522766c0.9529114 -3.4031982 1.4293518 -6.942528 1.4293518 -10.617973c0 -3.6754532 -0.47644043 -7.2085876 -1.4293518 -10.599411c-0.94052124 -3.4031944 -2.2832336 -6.57745 -4.028137 -9.522762c-1.7449341 -2.9576836 -3.8239746 -5.6493034 -6.237152 -8.074856c-2.4131775 -2.4379234 -5.104767 -4.5293427 -8.074829 -6.2742577c-2.9700928 -1.7449112 -6.156708 -3.0876274 -9.559906 -4.0281467c-3.390808 -0.9528961 -6.92395 -1.4293423 -10.599396 -1.4293423z" fill-rule="evenodd"/><path fill="#ffffff" d="m472.50974 39.6446c2.1904297 0 4.25708 0.4207611 6.200012 1.2622757c1.9552917 0.82914734 3.6568909 1.9676666 5.1047974 3.4155731c1.4479065 1.4479065 2.5864258 3.1495056 3.4155579 5.1047935c0.8415222 1.9429207 1.2622986 4.0095863 1.2622986 6.2000084l0 15.982651l-31.965302 0l0 -15.982651c0 -2.190422 0.41455078 -4.2570877 1.2437134 -6.2000084c0.8415222 -1.9552879 1.986206 -3.656887 3.4341125 -5.1047935c1.4479065 -1.4479065 3.143341 -2.5864258 5.0862427 -3.4155731c1.9552917 -0.8415146 4.028137 -1.2622757 6.218567 -1.2622757zm0 -15.982647c-4.4179688 0 -8.569855 0.83532906 -12.455688 2.505989c-3.8734741 1.67066 -7.251892 3.9538956 -10.135345 6.8497086c-2.8710632 2.8958092 -5.1419067 6.2866325 -6.8125916 10.172462c-1.6706543 3.8734589 -2.5059814 8.019169 -2.5059814 12.437138l0 47.892258l15.926971 0l0 -15.982651l31.965302 0l0 15.982651l15.9826355 0l0 -47.892258c0 -4.4179688 -0.83532715 -8.563679 -2.5059814 -12.437138c-1.6706848 -3.88583 -3.9539185 -7.2766533 -6.8497314 -10.172462c-2.8957825 -2.895813 -6.286621 -5.1790485 -10.172455 -6.8497086c-3.8734436 -1.67066 -8.019165 -2.505989 -12.437134 -2.505989z" fill-rule="evenodd"/><path fill="#ffffff" d="m518.3415 23.661953l0 79.85756l55.911438 0l0 -15.982651l-39.928772 0l0 -63.874905z" fill-rule="evenodd"/><path fill="#ffffff" d="m582.55054 23.661953l0 79.85756l54.742004 0l0 -15.982651l-38.75934 0l0 -15.926956l26.22937 0l0 -15.982651l-26.22937 0l0 -15.982651l38.75934 0l0 -15.982647z" fill-rule="evenodd"/><path fill="#ffffff" d="m648.48596 23.661953l0 79.85756l15.982605 0l0 -52.570107l30.795837 52.570107l17.096436 0l0 -79.85756l-15.982666 0l0 52.62579l-30.795837 -52.62579z" fill-rule="evenodd"/><path fill="#ffffff" d="m764.0399 22.770933c-3.7868042 0 -7.4375 0.49501038 -10.952087 1.4850311c-3.5021973 0.9776459 -6.7754517 2.3574886 -9.819763 4.1395245c-3.0443115 1.7820377 -5.8287354 3.9291458 -8.3533325 6.4413223c-2.5245361 2.4998055 -4.6778564 5.2842407 -6.459839 8.353302c-1.7820435 3.0566902 -3.1680908 6.3299446 -4.158142 9.819767c-0.9776001 3.4898262 -1.4664307 7.128151 -1.4664307 10.914982c0 3.786831 0.48883057 7.443722 1.4664307 10.970669c0.99005127 3.526947 2.3760986 6.824951 4.158142 9.89402c1.7819824 3.0566864 3.9353027 5.841118 6.459839 8.353302c2.5245972 2.499794 5.309021 4.6530914 8.3533325 6.4598846c3.0443115 1.7944107 6.317566 3.1804352 9.819763 4.1580887c3.5145874 0.99002075 7.165283 1.4850311 10.952087 1.4850311c4.937744 0 9.689819 -0.8415222 14.256287 -2.524559c4.5664673 -1.6954117 8.705994 -4.1209564 12.418579 -7.2766495l0 -31.519787l-15.42572 0l0 22.720974c-1.7078247 0.8538971 -3.5084229 1.5221634 -5.4017944 2.004799c-1.8934326 0.48262787 -3.8425293 0.7239456 -5.847351 0.7239456c-3.4898071 0 -6.769287 -0.66825867 -9.838318 -2.0047913c-3.0567017 -1.336525 -5.735962 -3.1556854 -8.03772 -5.457489c-2.3018188 -2.301796 -4.1209717 -4.993416 -5.4575195 -8.074852c-1.3364868 -3.0814438 -2.0047607 -6.3856354 -2.0047607 -9.912586c0 -3.4898224 0.6682739 -6.7630806 2.0047607 -9.819771c1.3365479 -3.0690613 3.1557007 -5.742119 5.4575195 -8.019169c2.3017578 -2.289421 4.981018 -4.102398 8.03772 -5.4389267c3.0690308 -1.336525 6.3485107 -2.0047913 9.838318 -2.0047913c3.4898071 0 6.812622 0.6992035 9.968262 2.0976067c3.1557007 1.3860321 5.9401245 3.3041954 8.3533325 5.7544975l8.3532715 -13.922169c-3.7125854 -3.1556911 -7.852112 -5.575056 -12.418579 -7.258091c-4.5664673 -1.6954098 -9.3185425 -2.5431156 -14.256287 -2.5431156z" fill-rule="evenodd"/><path fill="#ffffff" d="m803.022 23.661953l0 79.85756l54.742004 0l0 -15.982651l-38.75934 0l0 -15.926956l26.22937 0l0 -15.982651l-26.22937 0l0 -15.982651l38.75934 0l0 -15.982647z" fill-rule="evenodd"/><path fill="#ffffff" d="m900.92267 39.6446c2.1904297 0 4.2509155 0.4207611 6.1814575 1.2622757c1.930542 0.82914734 3.619751 1.9676666 5.067688 3.4155731c1.447876 1.4479065 2.5864258 3.1495056 3.4155273 5.1047935c0.84155273 1.9429207 1.2623291 4.0095863 1.2623291 6.2000084c0 2.1904182 -0.42077637 4.263279 -1.2623291 6.218567c-0.82910156 1.9429169 -1.9676514 3.6383286 -3.4155273 5.086235c-1.447937 1.4478989 -3.137146 2.5926132 -5.067688 3.4341278c-1.930542 0.8291397 -3.9910278 1.243721 -6.1814575 1.243721l-15.982666 0l0 -31.965302zm-31.965271 -15.982647l0 79.85756l15.982605 0l0 -15.982651l17.876099 -0.1113739l6.9610596 16.094025l16.985046 0l-8.854492 -20.883255c2.3018188 -1.4479065 4.3808594 -3.155693 6.2371216 -5.1233597c1.8563232 -1.9676666 3.421814 -4.1209564 4.696411 -6.4598846c1.2870483 -2.3389206 2.270874 -4.807785 2.951538 -7.4065895c0.69299316 -2.5988045 1.0394897 -5.271862 1.0394897 -8.019169c0 -2.9329376 -0.38360596 -5.7544975 -1.1508789 -8.46468c-0.7548828 -2.7101822 -1.831543 -5.253296 -3.2299194 -7.6293488c-1.3860474 -2.376049 -3.0567017 -4.53553 -5.012024 -6.478447c-1.9428711 -1.9552917 -4.0961914 -3.6259518 -6.4599 -5.01198c-2.3512573 -1.3984051 -4.882019 -2.4750538 -7.592224 -3.2299442c-2.710144 -0.7672653 -5.5317383 -1.150898 -8.464661 -1.150898z" fill-rule="evenodd"/><path fill="#67ff00" d="m27.165354 49.101925l29.795275 0l0 29.795277l-29.795275 0z" fill-rule="evenodd"/><path fill="#67ff00" d="m56.95888 78.895454l29.795277 0l0 29.795273l-29.795277 0z" fill-rule="evenodd"/><path fill="#67ff00" d="m86.7524 19.3084l29.79528 0l0 29.795277l-29.79528 0z" fill-rule="evenodd"/></g></svg>